<svg width="123" height="123" viewBox="0 0 123 123" fill="none" xmlns="http://www.w3.org/2000/svg">
<path d="M73.6112 107.034V112.805C73.6112 118.076 69.3237 122.357 64.0586 122.357H58.2877C53.0169 122.357 48.7351 118.07 48.7351 112.805V107.034C48.7351 101.763 53.0225 97.4814 58.2877 97.4814H64.0586C69.3294 97.4814 73.6112 101.769 73.6112 107.034Z" fill="white"/>
<path d="M73.6168 63.8788V57.973C73.6168 52.8764 69.4811 48.7407 64.3845 48.7407H57.9786C52.882 48.7407 48.7463 52.8764 48.7463 57.973V63.8788C48.7463 68.9753 44.6106 73.1111 39.514 73.1111H33.6083C28.5117 73.1111 24.376 77.2468 24.376 82.3434V88.7492C24.376 93.8458 28.5117 97.9815 33.6083 97.9815H40.0141C45.1107 97.9815 49.2464 93.8458 49.2464 88.7492V82.8435C49.2464 77.7469 53.3821 73.6112 58.4787 73.6112H63.8844C68.981 73.6112 73.1167 77.7469 73.1167 82.8435V88.7492C73.1167 93.8458 77.2524 97.9815 82.349 97.9815H88.7548C93.8514 97.9815 97.9871 93.8458 97.9871 88.7492V82.3434C97.9871 77.2468 93.8514 73.1111 88.7548 73.1111H82.8491C77.7525 73.1111 73.6168 68.9753 73.6168 63.8788Z" fill="white"/>
<path d="M122.363 57.9281V64.4294C122.363 69.5035 118.25 73.6168 113.176 73.6168H106.674C101.6 73.6168 97.487 69.5035 97.487 64.4294V58.4282C97.487 53.354 93.3738 49.2408 88.2997 49.2408H82.304C77.2299 49.2408 73.1167 45.1276 73.1167 40.0535V34.0578C73.1167 28.9837 69.0034 24.8705 63.9293 24.8705H58.4338C53.3597 24.8705 49.2464 28.9837 49.2464 34.0578V40.0535C49.2464 45.1276 45.1332 49.2408 40.0591 49.2408H34.0634C28.9893 49.2408 24.8761 53.354 24.8761 58.4282V64.4294C24.8761 69.5035 20.7628 73.6168 15.6887 73.6168H9.18735C4.11323 73.6168 0 69.5035 0 64.4294V57.9281C0 52.8539 4.11323 48.7407 9.18735 48.7407H15.183C20.2571 48.7407 24.3704 44.6275 24.3704 39.5534V33.5577C24.3704 28.4836 28.4836 24.3704 33.5577 24.3704H39.5534C44.6275 24.3704 48.7407 20.2571 48.7407 15.183V9.18735C48.7407 4.11323 52.8539 0 57.9281 0H64.4294C69.5036 0 73.6168 4.11323 73.6168 9.18735V15.183C73.6168 20.2571 77.73 24.3704 82.8041 24.3704H88.7998C93.8739 24.3704 97.9871 28.4836 97.9871 33.5577V39.5534C97.9871 44.6275 102.1 48.7407 107.174 48.7407H113.176C118.25 48.7407 122.363 52.8539 122.363 57.9281Z" fill="white"/>
</svg>
