<svg width="1258" height="220" viewBox="0 0 1258 220" fill="none" xmlns="http://www.w3.org/2000/svg">
<g clip-path="url(#clip0_947_3097)">
<path d="M132.147 192.128V202.486C132.147 211.947 124.451 219.632 115 219.632H104.642C95.1814 219.632 87.4959 211.937 87.4959 202.486V192.128C87.4959 182.667 95.1915 174.982 104.642 174.982H115C124.461 174.982 132.147 182.677 132.147 192.128Z" fill="white"/>
<path d="M132.157 114.667V104.067C132.157 94.919 124.733 87.4957 115.585 87.4957H104.087C94.9394 87.4957 87.5161 94.919 87.5161 104.067V114.667C87.5161 123.815 80.0928 131.239 70.9448 131.239H60.3444C51.1964 131.239 43.7731 138.662 43.7731 147.81V159.308C43.7731 168.456 51.1964 175.879 60.3444 175.879H71.8424C80.9904 175.879 88.4137 168.456 88.4137 159.308V148.708C88.4137 139.56 95.837 132.136 104.985 132.136H114.688C123.836 132.136 131.259 139.56 131.259 148.708V159.308C131.259 168.456 138.682 175.879 147.83 175.879H159.328C168.476 175.879 175.9 168.456 175.9 159.308V147.81C175.9 138.662 168.476 131.239 159.328 131.239H148.728C139.58 131.239 132.157 123.815 132.157 114.667Z" fill="white"/>
<path d="M219.653 103.986V115.656C219.653 124.763 212.27 132.146 203.162 132.146H191.493C182.385 132.146 175.002 124.763 175.002 115.656V104.884C175.002 95.7763 167.619 88.3934 158.511 88.3934H147.75C138.642 88.3934 131.259 81.0104 131.259 71.9028V61.141C131.259 52.0334 123.876 44.6504 114.768 44.6504H104.904C95.7967 44.6504 88.4137 52.0334 88.4137 61.141V71.9028C88.4137 81.0104 81.0308 88.3934 71.9231 88.3934H61.1614C52.0537 88.3934 44.6707 95.7763 44.6707 104.884V115.656C44.6707 124.763 37.2878 132.146 28.1801 132.146H16.5106C7.40297 132.146 0.0200195 124.763 0.0200195 115.656V103.986C0.0200195 94.8787 7.40297 87.4957 16.5106 87.4957H27.2724C36.3801 87.4957 43.763 80.1128 43.763 71.0051V60.2434C43.763 51.1357 51.146 43.7528 60.2536 43.7528H71.0154C80.123 43.7528 87.506 36.3698 87.506 27.2621V16.5004C87.506 7.39272 94.8889 0.00976562 103.997 0.00976562H115.666C124.774 0.00976562 132.157 7.39272 132.157 16.5004V27.2621C132.157 36.3698 139.54 43.7528 148.647 43.7528H159.409C168.517 43.7528 175.9 51.1357 175.9 60.2434V71.0051C175.9 80.1128 183.283 87.4957 192.39 87.4957H203.162C212.27 87.4957 219.653 94.8787 219.653 103.986Z" fill="white"/>
<mask id="mask0_947_3097" style="mask-type:luminance" maskUnits="userSpaceOnUse" x="275" y="55" width="971" height="112">
<path d="M1245.82 55.3518H275.292V166.631H1245.82V55.3518Z" fill="white"/>
</mask>
<g mask="url(#mask0_947_3097)">
<path d="M1204.23 166.631C1178.59 166.631 1161.01 149.212 1161.01 123.079C1161.01 96.9465 1179.58 79.528 1203.9 79.528C1228.22 79.528 1245.81 96.9465 1245.81 124.229V128.334H1184.02V128.99C1184.84 141.648 1193.55 149.363 1204.23 149.363C1212.28 149.363 1219.35 146.075 1222.48 137.038H1245.48C1240.55 157.251 1224.28 166.621 1204.23 166.621V166.631ZM1184.68 113.548H1223.46C1223.12 103.684 1215.24 95.9682 1204.06 95.9682C1193.71 95.9682 1185.99 103.2 1184.68 113.548Z" fill="white"/>
<path d="M1126.02 55.3519H1148.87V164.644H1126.02V55.3519Z" fill="white"/>
<path d="M1075.55 166.631C1064.37 166.631 1054.02 161.043 1049.58 152.006H1049.42V164.825H1026.42V55.3519H1049.58L1049.5 71.4794L1049.42 93.1744H1049.58C1053.69 84.6315 1064.21 79.5381 1075.55 79.5381C1099.37 79.5381 1114.16 97.2895 1114.16 122.595C1114.16 147.901 1099.38 166.641 1075.55 166.641V166.631ZM1070.12 98.1064C1057.63 98.1064 1048.92 107.638 1048.76 122.424V123.412C1048.76 138.531 1057.47 148.062 1070.12 148.062C1082.77 148.062 1091.32 138.37 1091.32 122.595C1091.32 107.809 1082.44 98.1064 1070.12 98.1064Z" fill="white"/>
<path d="M961.816 166.631C937.992 166.631 923.196 148.718 923.196 122.585C923.196 96.4523 937.982 79.528 961.816 79.528C973.152 79.528 983.511 84.6214 987.616 93.1643H987.777V81.3334H1010.94V164.815H987.777V151.996H987.616C983.178 161.033 972.991 166.621 961.816 166.621V166.631ZM967.07 148.062C979.728 148.062 988.433 138.531 988.433 123.412V122.424C988.433 107.638 979.718 98.1064 967.07 98.1064C954.423 98.1064 946.031 107.799 946.031 122.595C946.031 138.37 954.745 148.062 967.07 148.062Z" fill="white"/>
<path d="M918.093 81.1821V100.083H896.277V144.916C896.277 145.47 896.731 145.924 897.286 145.924H917.105V164.825H896.892C882.6 164.825 873.069 155.133 873.069 140.831V100.083H856.962V81.1821H873.069V55.3519H896.287V81.1821H918.103H918.093Z" fill="white"/>
<path d="M818.817 79.5381C838.707 79.5381 849.71 93.1744 849.71 113.558V164.825H826.543V118.48C826.543 106.811 820.794 99.7504 811.757 99.7504C800.087 99.7504 792.039 107.638 792.039 122.424V164.825H768.871V81.3435H792.039V96.7952C797.293 84.9644 806.825 79.5381 818.827 79.5381H818.817Z" fill="white"/>
<path d="M752.057 81.3435V164.825H728.89V150.695C723.635 161.537 714.265 166.631 702.757 166.631C683.694 166.631 671.208 153.811 671.208 131.299V81.3435H694.376V127.689C694.376 139.358 699.963 146.418 709.162 146.418C720.831 146.418 728.88 138.531 728.88 123.745V81.3435H752.057Z" fill="white"/>
<path d="M617.52 79.5381C643.814 79.5381 661.071 97.7837 661.071 122.918C661.071 148.052 643.814 166.631 617.52 166.631C591.226 166.631 574.14 148.385 574.14 122.918C574.14 97.4508 591.397 79.5381 617.52 79.5381ZM617.52 97.945C604.368 97.945 596.491 108.465 596.491 122.928C596.491 137.391 604.378 148.234 617.52 148.234C630.662 148.234 638.721 137.714 638.721 122.928C638.721 108.142 630.834 97.945 617.52 97.945Z" fill="white"/>
<path d="M569.48 131.632C567.675 152.994 552.062 166.631 528.723 166.631C502.762 166.631 485.504 148.385 485.504 122.918C485.504 97.4508 502.762 79.5381 528.723 79.5381C551.235 79.5381 566.848 92.196 569.148 113.064H546.303C544.659 104.027 538.748 98.1064 528.39 98.1064C515.409 98.1064 507.845 108.293 507.845 122.918C507.845 137.543 515.399 147.901 528.39 147.901C539.233 147.901 545.153 141.325 546.797 131.632H569.48Z" fill="white"/>
<path d="M480.845 131.632C479.039 152.994 463.426 166.631 440.087 166.631C414.126 166.631 396.869 148.385 396.869 122.918C396.869 97.4508 414.126 79.5381 440.087 79.5381C462.599 79.5381 478.212 92.196 480.512 113.064H457.667C456.023 104.027 450.113 98.1064 439.754 98.1064C426.774 98.1064 419.209 108.293 419.209 122.918C419.209 137.543 426.764 147.901 439.754 147.901C450.597 147.901 456.517 141.325 458.161 131.632H480.845Z" fill="white"/>
<path d="M369.455 164.825L360.912 142.313H311.279L302.736 164.825H275.292L320.518 55.3518H352.309L396.899 164.825H369.455ZM318.672 122.585H353.509L336.09 76.5728L318.672 122.585Z" fill="white"/>
</g>
</g>
<defs>
<clipPath id="clip0_947_3097">
<rect width="1257.97" height="219.633" fill="white"/>
</clipPath>
</defs>
</svg>
